<svg width="2400" height="2400" viewBox="0 0 2400 2400" fill="none" xmlns="http://www.w3.org/2000/svg">
<path d="M1289.94 1199.64L1965.3 523.62C1977.21 511.646 1983.9 495.439 1983.89 478.548C1983.88 461.656 1977.17 445.458 1965.24 433.5C1941.36 409.74 1899.3 409.62 1875.18 433.62L1200 1109.64L524.58 433.44C500.58 409.74 458.52 409.86 434.64 433.56C428.713 439.464 424.021 446.489 420.837 454.225C417.654 461.962 416.044 470.255 416.1 478.62C416.1 495.66 422.7 511.62 434.64 523.44L1110 1199.58L434.7 1875.78C422.783 1887.77 416.11 1904 416.143 1920.91C416.177 1937.81 422.915 1954.02 434.88 1965.96C446.46 1977.42 462.84 1984.02 479.76 1984.02H480.12C497.1 1983.96 513.48 1977.3 524.82 1965.72L1200 1289.7L1875.42 1965.9C1887.36 1977.78 1903.32 1984.38 1920.24 1984.38C1928.61 1984.4 1936.9 1982.77 1944.63 1979.58C1952.36 1976.39 1959.39 1971.7 1965.31 1965.79C1971.22 1959.87 1975.91 1952.84 1979.1 1945.11C1982.29 1937.38 1983.92 1929.09 1983.9 1920.72C1983.9 1903.74 1977.3 1887.72 1965.3 1875.9L1289.94 1199.64Z" fill="white"/>
</svg>
